<?xml version="1.0" encoding="iso-8859-1"?>
<!-- Uploaded to: SVG Repo, www.svgrepo.com, Generator: SVG Repo Mixer Tools -->
<svg fill="#000000" height="800px" width="800px" version="1.1" id="Layer_1" xmlns="http://www.w3.org/2000/svg" xmlns:xlink="http://www.w3.org/1999/xlink" 
	 viewBox="0 0 512 512" xml:space="preserve">
<g>
	<g>
		<path d="M478.742,96.917c-32.637-32.638-78.695-42.032-112.073-24.731c-29.407-22.641-72.11-33.067-102.359-33.067h-19.725V22.435
			c0-9.214-7.47-16.683-16.683-16.683h-66.733c-9.214,0-16.683,7.47-16.683,16.683v83.416h-16.683
			c-9.214,0-16.683,7.47-16.683,16.683v90.313c-37.47,21.758-67.566,50.484-87.4,83.546
			c-57.367,95.621-14.528,209.855,170.816,209.855c185.346,0,228.143-114.384,171.219-209.388
			c-19.774-33.002-50.012-61.879-87.804-83.974v-90.351c0-9.214-7.47-16.683-16.683-16.683h-16.683V72.486h19.725
			c23.356,0,54.539,7.605,76.612,22.244c-23.894,34.162-15.013,85.291,19.852,120.154c37.782,37.783,95.936,45.627,129.764,11.796
			C524.009,193.212,517.007,135.181,478.742,96.917z M177.852,39.119h33.366v66.733h-33.366V39.119z M144.486,139.218
			c10.12,0,83.821,0,100.099,0v66.733H144.486V139.218z M256.972,239.318c130.075,73.085,153.346,233.564-62.436,233.564
			c-216.948,0-191.11-161.953-62.472-233.564H256.972z M466.945,203.087c-19.359,19.358-56.669,14.112-82.577-11.796
			c-25.883-25.883-31.171-63.203-11.797-82.577c19.516-19.516,56.564-14.219,82.578,11.796
			C481.032,146.395,486.32,183.714,466.945,203.087z"/>
	</g>
</g>
</svg>