<?xml version="1.0" encoding="iso-8859-1"?>
<!-- Uploaded to: SVG Repo, www.svgrepo.com, Generator: SVG Repo Mixer Tools -->
<svg fill="#000000" height="800px" width="800px" version="1.1" id="Layer_1" xmlns="http://www.w3.org/2000/svg" xmlns:xlink="http://www.w3.org/1999/xlink" 
	 viewBox="0 0 512 512" xml:space="preserve">
<g>
	<g>
		<path d="M320.191,184.869c23.992-18.995,39.428-48.345,39.428-81.25C359.619,46.484,313.136,0,256,0
			c-57.135,0-103.619,46.484-103.619,103.619c0,32.905,15.436,62.254,39.428,81.25c-52.035,24.271-88.19,77.078-88.19,138.179
			c0,32.021,20.081,90.386,61.39,178.433L169.945,512h172.11l4.936-10.519c41.309-88.047,61.39-146.412,61.39-178.433
			C408.381,261.947,372.226,209.14,320.191,184.869z M256,36.571c30.631,0,56.51,20.654,64.492,48.762H191.508
			C199.49,57.226,225.369,36.571,256,36.571z M191.508,121.905h128.986c-7.982,28.108-33.862,48.762-64.492,48.762
			S199.49,150.012,191.508,121.905z M318.78,475.429H193.221v0c-23.375-50.611-36.684-85.45-44.123-109.353l38.445-0.061
			c5.221,15.276,12.95,35.433,24.416,61.841l4.777,11.002h78.526l4.777-11.002c11.519-26.531,19.268-46.755,24.491-62.056
			l38.477-0.061C355.588,389.65,342.263,424.581,318.78,475.429z M213.342,322.186c0.462-23.12,19.444-41.805,42.658-41.805
			c23.214,0,42.196,18.684,42.658,41.805c-0.372,3.132-3.538,23.506-27.449,80.1H240.79
			C216.88,345.691,213.714,325.318,213.342,322.186z M334.586,329.212c0.406-2.526,0.57-4.274,0.628-5.378l0.026-0.5l-0.001-0.5
			C335.12,279.259,299.575,243.81,256,243.81c-43.575,0-79.12,35.45-79.238,79.025l-0.001,0.499l0.026,0.5
			c0.06,1.141,0.229,2.96,0.667,5.626l-36.88,0.057c-0.274-2.573-0.383-4.708-0.383-6.468c0-63.857,51.952-115.81,115.81-115.81
			s115.81,51.952,115.81,115.81c0,1.676-0.1,3.695-0.346,6.105L334.586,329.212z"/>
	</g>
</g>
</svg>