<?xml version="1.0" encoding="iso-8859-1"?>
<!-- Uploaded to: SVG Repo, www.svgrepo.com, Generator: SVG Repo Mixer Tools -->
<svg fill="#000000" height="800px" width="800px" version="1.1" id="Layer_1" xmlns="http://www.w3.org/2000/svg" xmlns:xlink="http://www.w3.org/1999/xlink" 
	 viewBox="0 0 512 512" xml:space="preserve">
<g>
	<g>
		<path d="M301.14,164.605c20.733-12.323,35.993-32.869,41.295-57.148h-172.87c5.302,24.279,20.562,44.825,41.294,57.148
			c-65.207,19.471-112.883,79.991-112.883,151.445c0,2.066,0.081,4.238,0.241,6.514h95.583c-0.834-4.164-0.985-6.196-1.01-6.685
			c0.094-34.776,28.414-63.039,63.21-63.039s63.116,28.264,63.21,63.039c-0.025,0.489-0.176,2.521-1.01,6.685h95.581
			c0.162-2.278,0.243-4.45,0.243-6.514C414.024,244.596,366.349,184.076,301.14,164.605z"/>
	</g>
</g>
<g>
	<g>
		<path d="M306.945,360.49c-5.122,14.418-12.38,33.003-22.667,56.695h-56.555c-10.287-23.691-17.545-42.276-22.667-56.695h-99.544
			c9.518,34.352,28.115,80.892,56.128,140.602L166.758,512h178.484l5.119-10.909c28.013-59.708,46.61-106.249,56.128-140.602
			H306.945z"/>
	</g>
</g>
<g>
	<g>
		<path d="M256.001,0c-42.362,0-77.752,29.773-86.436,69.531h172.871C333.753,29.773,298.363,0,256.001,0z"/>
	</g>
</g>
</svg>